<svg xmlns="http://www.w3.org/2000/svg" viewBox="-167.31 -223.11 334.62 669.29" width="334.62" height="669.29">
<path d="M 72.115 -124.907 A 144.230 144.230 0 1 1 -72.115 -124.907" fill="none" stroke="#FFFFFF" stroke-width="11.540" stroke-linecap="round"/>
<path d="M 0 -205.800 L 23.100 -144.200 L -23.100 -144.200 Z" fill="#B7462E"/>
<circle cx="0" cy="-49.000" r="11.800" fill="#FFFFFF"/>
<circle cx="0" cy="0.000" r="11.800" fill="#FFFFFF"/>
<circle cx="0" cy="49.000" r="11.800" fill="#FFFFFF"/>
<g transform="translate(-164.684,346.245) scale(1.62011)"><path d="M456 217V26H231V217ZM456 246H231V418H456ZM536 217H768V26H536ZM536 246V418H768V246ZM574 842C540 731 485 624 431 556L444 546L456 555V447H238L153 484V-78H165C199 -78 231 -59 231 -50V-3H768V-68H780C807 -68 847 -50 848 -43V403C868 408 884 416 890 424L800 494L758 447H536V547C559 551 566 559 569 573L489 581C522 610 554 645 584 685H638C674 649 708 595 715 550C782 500 841 622 692 685H934C948 685 958 690 961 701C926 732 871 775 871 775L821 713H603C619 736 633 759 646 784C666 782 680 791 684 801ZM193 842C159 712 96 589 32 512L45 502C107 546 165 609 211 685H241C270 647 297 591 301 545C366 491 431 611 283 685H478C492 685 501 690 504 701C473 730 424 771 424 771L379 713H228C241 736 253 761 264 786C285 785 298 793 302 804Z" transform="translate(0.000,0.000) scale(0.100000,-0.100000)" fill="#FFFFFF"/><path d="M114 836 103 830C143 783 193 708 207 648C285 594 345 754 114 836ZM247 531C268 535 280 542 285 549L211 612L172 572H36L45 543H171V105C171 86 165 78 130 59L185 -34C195 -28 206 -16 213 3C283 76 343 149 373 184L365 196C325 168 283 140 247 117ZM491 -55V-13H784V-70H797C823 -70 862 -54 863 -47V225C884 229 899 237 906 245L816 313L774 268H496L413 304V-81H425C458 -81 491 -63 491 -55ZM784 239V16H491V239ZM845 834 797 770H336L344 741H538L508 610H347L356 581H501C485 514 468 446 453 394H289L297 365H955C969 365 978 370 981 381C950 412 900 454 900 454L855 394H832V570C851 574 866 581 873 588L787 654L745 610H588L619 741H907C921 741 931 746 933 757C901 790 845 834 845 834ZM581 581H755V394H531C546 445 564 513 581 581Z" transform="translate(102.000,0.000) scale(0.100000,-0.100000)" fill="#FFFFFF"/></g>
<g transform="translate(-154.585,422.608) scale(0.35492)"><path d="M101 0H288C509 0 629 137 629 369C629 603 509 733 284 733H101ZM193 76V658H276C449 658 534 555 534 369C534 184 449 76 276 76Z" transform="translate(0.000,0.000) scale(0.100000,-0.100000)" fill="#FFFFFF"/><path d="M101 0H193V733H101Z" transform="translate(98.800,0.000) scale(0.100000,-0.100000)" fill="#FFFFFF"/><path d="M219 0H311V284L532 733H436L342 526C319 472 294 420 268 365H264C238 420 216 472 192 526L97 733H-1L219 284Z" transform="translate(158.100,0.000) scale(0.100000,-0.100000)" fill="#FFFFFF"/><path d="M361 -13C510 -13 624 67 624 302V733H535V300C535 124 458 68 361 68C265 68 190 124 190 300V733H98V302C98 67 211 -13 361 -13Z" transform="translate(241.200,0.000) scale(0.100000,-0.100000)" fill="#FFFFFF"/><path d="M4 0H97L168 224H436L506 0H604L355 733H252ZM191 297 227 410C253 493 277 572 300 658H304C328 573 351 493 378 410L413 297Z" transform="translate(423.300,0.000) scale(0.100000,-0.100000)" fill="#FFFFFF"/><path d="M389 -13C487 -13 568 23 615 72V380H374V303H530V111C501 84 450 68 398 68C241 68 153 184 153 369C153 552 249 665 397 665C470 665 518 634 555 596L605 656C563 700 496 746 394 746C200 746 58 603 58 366C58 128 196 -13 389 -13Z" transform="translate(514.100,0.000) scale(0.100000,-0.100000)" fill="#FFFFFF"/><path d="M101 0H534V79H193V346H471V425H193V655H523V733H101Z" transform="translate(613.000,0.000) scale(0.100000,-0.100000)" fill="#FFFFFF"/><path d="M101 0H188V385C188 462 181 540 177 614H181L260 463L527 0H622V733H534V352C534 276 541 193 547 120H542L463 271L195 733H101Z" transform="translate(701.900,0.000) scale(0.100000,-0.100000)" fill="#FFFFFF"/><path d="M253 0H346V655H568V733H31V655H253Z" transform="translate(804.200,0.000) scale(0.100000,-0.100000)" fill="#FFFFFF"/></g>
</svg>